<svg viewBox="0 0 400 400" xmlns="http://www.w3.org/2000/svg">
  <!-- Database icon with background centered -->
  <g transform="translate(200, 200) scale(0.24)">
    <g transform="translate(-512, -512)">
      <!-- Database background from original SVG -->
      <path transform="translate(-184.32, -184.32), scale(87.04)" fill="#7ed0ec" d="M9.166.33a2.25 2.25 0 00-2.332 0l-5.25 3.182A2.25 2.25 0 00.5 5.436v5.128a2.25 2.25 0 001.084 1.924l5.25 3.182a2.25 2.25 0 002.332 0l5.25-3.182a2.25 2.25 0 001.084-1.924V5.436a2.25 2.25 0 00-1.084-1.924L9.166.33z" strokewidth="0"/>

      <!-- Database layers -->
      <path d="M117 608.4v178.5c1.5 93.7 155.7 169.5 395 169.5s393.4-75.8 395-169.5V608.4H117z" fill="#1565c0"/>
      <path d="M907 607.7c0 99.4-154.8 180-395 180s-395-80.6-395-180 154.8-180 395-180 395 80.5 395 180z" fill="#FFFFFF"/>
      <path d="M117 428.4v158.5c1.5 93.7 155.7 179.5 395 179.5s393.4-85.8 395-179.5V428.4H117z" fill="#1565c0"/>
      <path d="M907 427.7c0 99.4-154.8 180-395 180s-395-80.6-395-180 154.8-180 395-180 395 80.5 395 180z" fill="#FFFFFF"/>
      <path d="M117 248.4v158.5c1.5 93.7 155.7 179.5 395 179.5s393.4-85.8 395-179.5V248.4H117z" fill="#1565c0"/>
      <path d="M907 247.7c0 99.4-154.8 180-395 180s-395-80.6-395-180 154.8-180 395-180 395 80.5 395 180z" fill="#1976d2"/>
    </g>
  </g>

  <!-- LinesDB text overlapping database bottom -->
  <g transform="translate(200, 315)">
    <!-- White outline for text -->
    <text x="-140" y="12" text-anchor="middle"
          font-family="'Fira Code', 'JetBrains Mono', Consolas, monospace"
          font-size="70" font-weight="500"
          fill="none" stroke="#ffffff" stroke-width="5" stroke-linejoin="round">
      {
    </text>
    <text x="0" y="8" text-anchor="middle"
          font-family="'Segoe UI', 'Helvetica Neue', Arial, sans-serif"
          font-size="56" font-weight="bold"
          fill="none" stroke="#ffffff" stroke-width="5" stroke-linejoin="round">
      LinesDB
    </text>
    <text x="140" y="12" text-anchor="middle"
          font-family="'Fira Code', 'JetBrains Mono', Consolas, monospace"
          font-size="70" font-weight="500"
          fill="none" stroke="#ffffff" stroke-width="5" stroke-linejoin="round">
      }
    </text>

    <!-- Actual text -->
    <text x="-140" y="12" text-anchor="middle"
          font-family="'Fira Code', 'JetBrains Mono', Consolas, monospace"
          font-size="70" font-weight="500" fill="#999999">
      {
    </text>
    <text x="0" y="8" text-anchor="middle"
          font-family="'Segoe UI', 'Helvetica Neue', Arial, sans-serif"
          font-size="56" font-weight="bold" fill="#444444">
      LinesDB
    </text>
    <text x="140" y="12" text-anchor="middle"
          font-family="'Fira Code', 'JetBrains Mono', Consolas, monospace"
          font-size="70" font-weight="500" fill="#999999">
      }
    </text>
  </g>
</svg>
